<?xml version="1.0" standalone="no"?>
<!DOCTYPE svg PUBLIC "-//W3C//DTD SVG 1.1//EN" "http://www.w3.org/Graphics/SVG/1.1/DTD/svg11.dtd" >
<svg xmlns="http://www.w3.org/2000/svg">
<metadata></metadata>
<defs>
<font id="enitabboldregular" horiz-adv-x="1126" >
<font-face units-per-em="2048" ascent="1608" descent="-440" />
<missing-glyph horiz-adv-x="430" />
<glyph unicode="&#xfb01;" horiz-adv-x="1093" d="M139 0v1118q99 116 214 171.5t270 66.5l-45 -185q-138 -12 -252 -122v-148h284l-84 -180h-200v-721h-187zM750 1245q0 45 33 78t77 33q46 0 78.5 -32.5t32.5 -76.5q0 -45 -32.5 -77.5t-76.5 -32.5q-46 0 -79 32t-33 76zM766 0v889l186 47v-936h-186z" />
<glyph unicode="&#xfb02;" horiz-adv-x="1093" d="M139 0v1118q99 116 214 171.5t270 66.5l-45 -185q-138 -12 -252 -122v-148h284l-84 -180h-200v-721h-187zM766 0v1305l188 51v-1356h-188z" />
<glyph horiz-adv-x="2048" />
<glyph horiz-adv-x="2048" />
<glyph unicode="&#xd;" horiz-adv-x="2048" />
<glyph unicode=" "  horiz-adv-x="430" />
<glyph unicode="&#x09;" horiz-adv-x="430" />
<glyph unicode="&#xa0;" horiz-adv-x="430" />
<glyph unicode="!" horiz-adv-x="526" d="M147 94q0 47 34 82t81 35q49 0 83 -34.5t34 -82.5q0 -47 -34 -80.5t-81 -33.5q-49 0 -83 33.5t-34 80.5zM170 350v955l186 51v-1006h-186z" />
<glyph unicode="&#x22;" horiz-adv-x="606" d="M72 1063q58 162 61 293l166 8q0 -146 -66 -324zM297 1038q69 194 72 318l166 8q0 -143 -76 -348z" />
<glyph unicode="#" horiz-adv-x="1343" d="M82 287l49 166h248l18 170h-305l49 165h275l26 246l183 78l-35 -324h184l29 246l182 78l-35 -324h312l-86 -165h-246l-17 -170h336l-82 -166h-270l-31 -287h-178l33 287h-184l-31 -287h-176l32 287h-280zM555 453h182l19 170h-185z" />
<glyph unicode="$" horiz-adv-x="1081" d="M113 997q-1 68 30.5 132t89 115t146.5 81.5t194 30.5q82 0 180 -24t165 -58l-19 -203q-49 33 -151 59.5t-175 26.5q-38 0 -78.5 -7.5t-81.5 -23.5t-67.5 -47.5t-26.5 -72.5q0 -80 121 -158l279 -178q41 -26 73.5 -50.5t66.5 -58t57 -68t37.5 -78t15.5 -89.5 q0 -69 -23 -130.5t-67.5 -110t-115 -77t-159.5 -28.5q-248 0 -418 71l-30 228q204 -101 393 -101q88 0 142 42t54 102q0 96 -141 186l-299 190q-192 123 -192 299zM455 47l186 51v-387h-186v336zM455 1198v336l186 51v-387h-186z" />
<glyph unicode="%" horiz-adv-x="1556" d="M92 973q0 86 12.5 152t41.5 120t82 82.5t128 28.5t128 -28.5t82.5 -82t42 -119.5t12.5 -151q0 -59 -6.5 -109.5t-24.5 -100t-46.5 -84t-76 -55.5t-109.5 -20q-266 2 -266 367zM199 -20l919 1351l230 25l-918 -1376h-231zM262 975q0 -84 13.5 -131t31.5 -59.5t47 -12.5 q31 0 49 14t29.5 59.5t11.5 129.5l2 -2q0 123 -18.5 170t-75.5 47q-45 0 -67.5 -48t-22.5 -167zM936 346q0 86 12.5 152t41.5 120t82 82.5t128 28.5t128 -28.5t82 -82t41.5 -119.5t12.5 -151q0 -60 -6.5 -110t-24 -99.5t-46 -83.5t-76 -55t-109.5 -20q-266 2 -266 366z M1106 348q0 -85 13 -131.5t30.5 -59t46.5 -12.5q32 0 51 13.5t31 59t12 128.5q0 123 -18.5 170t-75.5 47q-45 0 -67.5 -48t-22.5 -167z" />
<glyph unicode="&#x26;" horiz-adv-x="1458" d="M133 324q0 110 68 215.5t213 183.5q-117 90 -166 175t-47 177q0 119 91 200t271 81q163 0 256.5 -83.5t93.5 -205.5q0 -213 -225 -358l303 -312l301 254v-231l-174 -148l268 -272h-245l-164 160q-204 -180 -424 -180q-79 0 -152.5 22t-134 63.5t-97 108.5t-36.5 150z M332 338q0 -87 59.5 -134.5t157.5 -47.5q63 0 146.5 36t154.5 101l-305 319q-98 -42 -155.5 -124t-57.5 -150zM389 1061q0 -52 45 -113.5t125 -122.5q84 51 128 111t44 117h2q0 64 -50 99.5t-120 35.5q-68 0 -121 -32t-53 -95z" />
<glyph unicode="'" horiz-adv-x="346" d="M72 1038q22 68 38.5 160.5t18.5 149.5l145 8h-2q0 -67 -17 -163.5t-40 -164.5z" />
<glyph unicode="(" horiz-adv-x="561" d="M113 537q0 263 100.5 478.5t249.5 340.5l47 -193q-94 -103 -155.5 -284t-61.5 -342t61.5 -343t155.5 -284l-47 -193q-148 123 -249 340t-101 480z" />
<glyph unicode=")" horiz-adv-x="561" d="M51 -90q93 103 155 285t62 342q0 161 -61.5 342t-155.5 282l45 195q71 -58 132.5 -140t112 -185t79.5 -231t29 -263q0 -262 -101 -478.5t-250 -341.5z" />
<glyph unicode="*" horiz-adv-x="921" d="M31 915l22 144h275l-150 244l144 53l139 -226l149 244l119 -90l-137 -225h299l-23 -144h-276l149 -243l-141 -54l-139 226l-150 -244l-118 90l137 225h-299z" />
<glyph unicode="+" horiz-adv-x="1243" d="M82 444l33 191h409v412l193 32v-442h444l-33 -193h-409v-444h-193v444h-444z" />
<glyph unicode="," horiz-adv-x="315" d="M-61 -401q79 102 128.5 248t49.5 255l168 11q0 -137 -55.5 -292t-118.5 -233z" />
<glyph unicode="-" horiz-adv-x="751" d="M72 449l32 192h576l-33 -192h-575z" />
<glyph unicode="." horiz-adv-x="333" d="M51 94q0 47 35 82t82 35t81 -35t34 -82t-34 -80.5t-81 -33.5q-48 0 -82.5 33.5t-34.5 80.5z" />
<glyph unicode="/" horiz-adv-x="751" d="M72 -20l389 1325l219 51l-401 -1346z" />
<glyph unicode="0" d="M94 651q0 357 107.5 531t361.5 174t361.5 -174t107.5 -531q0 -101 -9.5 -185t-30 -161.5t-56.5 -136t-86.5 -101.5t-121.5 -65t-161 -22q-106 1 -188 33.5t-135.5 90t-87.5 142.5t-48 184t-14 221zM293 651q0 -141 17.5 -235.5t54.5 -146t85 -72.5t117 -21q54 0 93.5 12 t73.5 43t54 84.5t31.5 137t11.5 198.5h3q0 130 -13 223t-35 148t-58 86t-74 41t-91 10t-90.5 -10t-74 -41t-58 -86t-34.5 -148t-13 -223z" />
<glyph unicode="1" d="M246 1327q126 14 217 14q151 0 287 -26v-1315h-199v1145q-41 6 -105 6q-99 0 -174 -10z" />
<glyph unicode="2" d="M133 180q20 67 66 134.5t103 123t121 110.5t124 107t109 103t78.5 107t29.5 110q0 79 -57.5 130.5t-167.5 51.5q-87 0 -183.5 -35t-171.5 -84l-34 203q209 115 389 115q184 0 306 -106t122 -275q-3 -171 -142 -324q-62 -69 -195 -184t-171 -152q-52 -49 -86 -102l4 -14 h622l-36 -199h-766z" />
<glyph unicode="3" d="M123 1341h821q49 0 49 -43q0 -15 -6 -30l-26 -76l-390 -350q105 -8 184.5 -45t126.5 -94t70.5 -124t24.5 -143v-6q0 -202 -137 -326t-342 -124q-169 0 -305 61l-35 227q52 -29 154 -59t165 -31q81 0 147 24t110.5 81.5t45.5 142.5q0 67 -25 114.5t-70.5 73t-99 36.5 t-122.5 12h-2q-53 0 -135 -19l-33 199l319 301h-450z" />
<glyph unicode="4" d="M82 356v101q0 55 11.5 94t41.5 84l459 706h233l-508 -786h304v233l198 103v-334h234l-94 -199h-138v-358h-198v356h-543z" />
<glyph unicode="5" d="M113 285q57 -44 158 -76t196 -33q79 0 141 24.5t103 86t41 153.5q0 93 -73 165t-202 73q-123 0 -317 -78l-35 195l151 546h687l-89 -198h-444l-80 -287q72 21 127 21q127 0 234.5 -54.5t173 -155.5t65.5 -227q0 -118 -40.5 -208.5t-110 -144t-155 -80.5t-183.5 -27 q-68 0 -168.5 21.5t-155.5 51.5z" />
<glyph unicode="6" d="M88 541q0 181 45.5 330t132.5 258t222 169t307 60q38 0 65 -4l29 -201q-27 8 -55 8q-201 0 -323 -80.5t-185 -244.5q37 33 107 62.5t155 29.5q193 0 321.5 -130.5t126.5 -322.5q0 -138 -55.5 -250t-161 -178.5t-241.5 -66.5q-119 0 -214 45t-154.5 123t-90.5 178t-31 215 zM289 494v2q10 -140 81 -229t205 -89q123 0 194 83.5t71 207.5q0 119 -68 189.5t-186 70.5q-112 0 -201 -65.5t-96 -169.5z" />
<glyph unicode="7" d="M113 1143v198h741q73 0 97 -23.5t24 -88.5v-90q-293 -455 -588 -1139h-219q122 282 278.5 598.5t286.5 529.5v15h-620z" />
<glyph unicode="8" d="M84 403q0 226 178 340q-123 97 -123 246q0 172 119 269.5t305 97.5t305 -97.5t119 -269.5q0 -147 -123 -244q178 -118 178 -339q0 -101 -40.5 -183.5t-108.5 -134.5t-153 -80t-177 -28t-177 28t-153 79.5t-108.5 133.5t-40.5 182zM283 406q0 -100 76.5 -164t203.5 -64 t204 63.5t77 161.5q0 106 -72 171t-209 65t-208.5 -64t-71.5 -169zM338 989q0 -80 60 -123t161 -43q95 0 162 48t67 118q0 75 -56 122.5t-169 47.5q-111 0 -168 -48t-57 -122z" />
<glyph unicode="9" d="M90 862q0 138 56 250.5t161.5 179t241.5 66.5q119 0 214 -45t154 -123t90 -178t31 -215q0 -181 -45 -330t-132 -258t-222 -169t-307 -60q-39 0 -66 4l-28 200q27 -8 55 -8q200 0 322.5 81t185.5 245q-37 -33 -107 -62.5t-155 -29.5q-193 0 -322 130t-127 322zM287 868 q0 -119 68 -189.5t186 -70.5q111 0 200.5 66t96.5 170v-2q-5 67 -24 122.5t-52.5 100t-87.5 69.5t-123 25q-123 0 -193.5 -83.5t-70.5 -207.5z" />
<glyph unicode=":" horiz-adv-x="456" d="M113 94q0 47 34.5 82t81.5 35t81 -35t34 -82t-34 -80.5t-81 -33.5t-81.5 33.5t-34.5 80.5zM113 819q0 47 34.5 82t81.5 35t81 -35t34 -82t-34 -80.5t-81 -33.5t-81.5 33.5t-34.5 80.5z" />
<glyph unicode=";" horiz-adv-x="464" d="M-20 -401q79 102 128.5 248t49.5 255l166 9l2 2q0 -137 -55.5 -292t-118.5 -233zM121 819q0 47 35 82t82 35t80.5 -34.5t33.5 -82.5q0 -47 -33.5 -80.5t-80.5 -33.5q-48 0 -82.5 33.5t-34.5 80.5z" />
<glyph unicode="&#x3c;" horiz-adv-x="1079" d="M82 440v101l774 448l127 -123l-651 -374l665 -381l-139 -119z" />
<glyph unicode="=" horiz-adv-x="1165" d="M82 272l61 166h887l-63 -166h-885zM109 610l61 168h913l-61 -168h-913z" />
<glyph unicode="&#x3e;" horiz-adv-x="1079" d="M82 111l666 378l-654 377l127 123l776 -448v-101l-774 -448z" />
<glyph unicode="?" horiz-adv-x="841" d="M72 1286q154 70 297 70q191 0 306.5 -98.5t115.5 -284.5q0 -81 -27.5 -150.5t-71.5 -124t-90.5 -104.5t-91.5 -114t-68 -130h-211q15 72 43.5 132.5t61.5 102t69.5 78t69.5 69t60 66.5t43 79t16 98q0 78 -57 130t-166 52q-129 0 -273 -72zM223 94q0 47 34 82t81 35 q49 0 83 -34.5t34 -82.5q0 -47 -34 -80.5t-81 -33.5q-49 0 -83 33.5t-34 80.5z" />
<glyph unicode="@" horiz-adv-x="2037" d="M113 526q0 185 71.5 353t193 289.5t289 193.5t351.5 72q185 0 353 -72t289.5 -193t193 -289t71.5 -352q0 -88 -17.5 -168t-54.5 -149.5t-90.5 -120.5t-129.5 -80.5t-167 -29.5q-112 0 -193 72t-97 167q-32 -52 -108.5 -86.5t-145.5 -34.5q-141 0 -220 80.5t-77 188.5 q0 122 81 194t214 88l231 27q0 84 -24.5 116.5t-104.5 32.5q-131 0 -305 -73l-33 151q63 33 167 62.5t171 29.5q167 0 234 -74t67 -229v-381q0 -87 44.5 -132.5t129.5 -45.5q110 0 183 110t73 283q0 149 -58.5 285.5t-156.5 235t-234 157t-284 58.5q-200 0 -369 -99 t-267.5 -268t-98.5 -367q0 -200 98.5 -369t267.5 -267.5t367 -98.5q160 0 317 72v-187q-157 -57 -315 -57q-185 0 -353 71.5t-289.5 193t-193 289t-71.5 351.5zM797 379q0 -119 125 -119q107 0 167 67.5t60 192.5l-195 -26q-83 -10 -120 -38.5t-37 -76.5z" />
<glyph unicode="A" horiz-adv-x="1179" d="M10 0l406 1174q31 90 94.5 136t142.5 46h72l444 -1356h-208l-140 426h-454l-148 -426h-209zM432 618h326l-158 484z" />
<glyph unicode="B" horiz-adv-x="1187" d="M164 0v1313q208 43 368 43q76 0 142 -9.5t130.5 -35t110 -64.5t73.5 -102.5t28 -145.5q0 -79 -33 -147t-102 -104q94 -49 144 -139.5t50 -194.5q0 -122 -59.5 -217.5t-159 -146t-219.5 -50.5h-473zM362 199h273q98 0 171 59t73 154q0 114 -78 169.5t-211 55.5h-228v-438z M362 831h230q51 0 100.5 16t87 54.5t37.5 91.5q0 170 -291 170q-58 0 -164 -12v-320z" />
<glyph unicode="C" horiz-adv-x="1241" d="M113 670q0 147 41.5 272t119.5 217.5t198.5 144.5t270.5 52q191 0 355 -92l-29 -187q-76 38 -165 59t-159 21q-205 0 -313 -125.5t-108 -359.5q0 -140 46 -249.5t144 -177.5q97 -67 234 -67h4q79 0 176 24t164 66l-37 -231q-134 -57 -305 -57q-127 0 -241.5 46 t-203 131.5t-140.5 218t-52 294.5z" />
<glyph unicode="D" horiz-adv-x="1409" d="M164 6v1311q275 39 426 39q127 0 232 -25t181.5 -71t133.5 -108.5t91.5 -140t51 -162t16.5 -179.5q0 -152 -46 -272.5t-122.5 -197.5t-183 -127.5t-220 -71.5t-241.5 -21q-150 0 -319 26zM362 186q90 -8 140 -8q95 0 176.5 14t159 49t132 90t87.5 141.5t33 197.5l2 -2 q0 112 -25 197t-81.5 152t-156.5 103t-241 37q-112 0 -226 -12v-959z" />
<glyph unicode="E" horiz-adv-x="1097" d="M164 0v1292q326 64 706 64q78 0 115 -2l-31 -199q-33 2 -104 2q-285 0 -488 -31v-313h543l-92 -195h-451v-419h603l-35 -199h-766z" />
<glyph unicode="F" horiz-adv-x="1017" d="M164 0l2 1292q326 64 678 64q75 0 112 -2l-30 -199q-33 2 -103 2q-255 0 -458 -31v-313h442l-92 -195h-350v-618h-201z" />
<glyph unicode="G" horiz-adv-x="1361" d="M113 666q0 148 41.5 273.5t119.5 219t198.5 146.5t270.5 53q95 0 204.5 -27.5t170.5 -68.5l-16 -191q-76 38 -181 62t-176 24q-205 0 -316.5 -127.5t-111.5 -361.5q0 -118 33.5 -212t92 -154t136 -92t166.5 -32q135 0 252 66v506l201 59v-709q-197 -120 -440 -120 q-203 0 -350 88.5t-221 242t-74 355.5z" />
<glyph unicode="H" horiz-adv-x="1406" d="M164 0v1305l198 51v-543h682v492l199 51v-1356h-199v618h-682v-618h-198z" />
<glyph unicode="I" horiz-adv-x="526" d="M164 0v1305l198 51v-1356h-198z" />
<glyph unicode="J" horiz-adv-x="526" d="M-129 -10l47 170h35q110 0 160.5 61.5t50.5 198.5v891l198 45v-903q0 -106 -21 -188t-57 -135t-87 -87.5t-107.5 -48.5t-122.5 -14q-41 0 -96 10z" />
<glyph unicode="K" horiz-adv-x="1189" d="M164 0v1305l198 51v-1356h-198zM240 692l788 664v-248l-512 -424l694 -684h-274z" />
<glyph unicode="L" horiz-adv-x="1015" d="M164 0v1305l198 51v-1157h633l-12 -199h-819z" />
<glyph unicode="M" horiz-adv-x="1665" d="M123 0l67 1303l261 53l380 -967l383 967l267 -51l61 -1305h-201l-45 1028h-10l-377 -936h-153l-377 936h-10l-45 -1028h-201z" />
<glyph unicode="N" horiz-adv-x="1378" d="M164 0v1300l246 56l604 -1104v1051l203 53v-1356h-123q-61 0 -123 41t-107 123l-487 866h-15v-1030h-198z" />
<glyph unicode="O" horiz-adv-x="1441" d="M113 651q0 146 36.5 271.5t108.5 223.5t190 154t271 56q123 0 225 -37t172.5 -101.5t119 -154t71 -193t22.5 -219.5q0 -135 -32 -247t-88 -189.5t-133 -131t-166.5 -78.5t-188.5 -25q-100 0 -188 23t-166 75t-133.5 128.5t-88 190.5t-32.5 254zM317 651q0 -473 402 -473 q86 0 156 25t127 78.5t88.5 147.5t31.5 222h2q0 242 -103 374t-300 132q-199 0 -301.5 -132t-102.5 -374z" />
<glyph unicode="P" horiz-adv-x="1236" d="M164 0v1303q233 53 395 53h12q265 0 414.5 -124t149.5 -337q0 -72 -16.5 -134t-57 -120t-104 -98.5t-164 -65t-230.5 -24.5h-201v-453h-198zM362 637h199q103 0 177 19.5t116 56t61 81t19 99.5q0 261 -365 264q-81 0 -207 -18v-502z" />
<glyph unicode="Q" horiz-adv-x="1441" d="M113 651q0 146 36.5 271.5t108.5 223.5t190 154t271 56q123 0 225 -37t172.5 -101.5t119 -153.5t71 -192t22.5 -219q0 -155 -41.5 -279t-115 -204.5t-168.5 -127t-207 -58.5q306 -77 473 -217l-29 -207q-103 74 -248.5 137t-277.5 98v185q-99 1 -186.5 24.5t-164.5 75.5 t-132 129t-87 190t-32 252zM317 653q0 -107 21.5 -190t57.5 -136t88 -87t109.5 -48t125.5 -14q86 0 156 25.5t127 79.5t88.5 148t31.5 222l2 -2q0 242 -103 374t-300 132q-198 0 -301 -131.5t-103 -372.5z" />
<glyph unicode="R" horiz-adv-x="1267" d="M164 0v1303q185 53 401 53h23q224 0 357.5 -114t135.5 -294q0 -140 -70.5 -238t-193.5 -145l348 -565h-235l-322 524h-37h-209v-524h-198zM362 702h207q137 0 225.5 74t88.5 168q0 102 -78 160.5t-225 58.5q-133 -4 -218 -16v-445z" />
<glyph unicode="S" horiz-adv-x="1060" d="M102 997q-1 68 30.5 132t89.5 115t146.5 81.5t194.5 30.5q82 0 179 -24t165 -58l-18 -203q-49 33 -151 59.5t-175 26.5q-38 0 -78.5 -7.5t-81.5 -23.5t-67.5 -47.5t-26.5 -72.5q0 -80 121 -158l279 -178q52 -33 91.5 -65.5t77.5 -75t58.5 -94.5t21.5 -109 q0 -69 -23 -130.5t-67 -110t-114.5 -77t-159.5 -28.5q-248 0 -418 71l-31 228q204 -101 394 -101q88 0 142 42t54 102q0 96 -141 186l-299 190q-193 124 -193 299z" />
<glyph unicode="T" horiz-adv-x="1120" d="M31 1149l32 192h1047l-33 -192h-401v-1149h-201v1149h-444z" />
<glyph unicode="U" horiz-adv-x="1353" d="M164 414v889l198 53v-914q0 -146 89.5 -212t236.5 -66q74 0 160 17.5t141 49.5v1072l201 53v-1256q-263 -120 -506 -120q-88 0 -164 14.5t-142 47.5t-113 82.5t-74 123.5t-27 166z" />
<glyph unicode="V" horiz-adv-x="1253" d="M41 1303l195 53l354 -1067q3 -8 7 -19l6 -16.5t4.5 -13t4.5 -11t4.5 -7.5t4.5 -5.5t5 -3.5t6.5 -2h8.5l348 1092l223 53l-440 -1370h-86q-87 0 -154.5 47.5t-97.5 132.5z" />
<glyph unicode="W" horiz-adv-x="1878" d="M41 1303l205 53l397 -1067q24 -62 33 -70q8 -8 22 -8l185 559l-185 533l195 53l354 -1067q15 -45 25.5 -61.5t25.5 -16.5l316 1092l223 53l-407 -1370h-76q-97 0 -165 47t-97 133l-107 311l-160 -491h-96q-86 0 -149 46.5t-97 133.5z" />
<glyph unicode="X" horiz-adv-x="1345" d="M41 0l506 692l-449 606l201 58l371 -498l325 445l283 53l-485 -664l512 -692h-244l-391 526l-383 -526h-246z" />
<glyph unicode="Y" horiz-adv-x="1226" d="M164 778v527l198 51v-578q0 -113 73 -176t177 -63q129 0 250 69v701l201 47v-903q0 -131 -32.5 -226t-89.5 -147t-124.5 -76t-148.5 -24q-40 0 -95 10l48 172q24 -6 47 -6q103 0 147.5 63t46.5 187q-121 -62 -246 -62q-195 0 -323.5 119.5t-128.5 314.5z" />
<glyph unicode="Z" horiz-adv-x="1236" d="M102 1341h906q57 0 75.5 -12.5t18.5 -42.5q0 -3 -1 -10.5t-1 -11.5l-10 -97l-738 -968h783l-37 -199h-867q-54 0 -80 22t-30 76l-10 109l708 942h-684z" />
<glyph unicode="[" horiz-adv-x="688" d="M139 0v1356h498l-72 -185h-229v-989h303l-72 -182h-428z" />
<glyph unicode="\" horiz-adv-x="772" d="M82 1356l217 -51l391 -1325l-207 30z" />
<glyph unicode="]" horiz-adv-x="688" d="M49 1174l72 182h424v-1356h-494l72 182h229v992h-303z" />
<glyph unicode="^" horiz-adv-x="1120" d="M205 829l301 527h100l309 -525l-118 -141l-240 416l-229 -404z" />
<glyph unicode="_" horiz-adv-x="948" d="M82 0l43 170h741l-78 -170h-706z" />
<glyph unicode="`" horiz-adv-x="911" d="M205 1241l28 154q67 -56 229.5 -150t244.5 -123h-318q-74 37 -184 119z" />
<glyph unicode="a" horiz-adv-x="968" d="M78 264q0 130 88 207.5t231 93.5l250 31v49q0 67 -34.5 90t-106.5 23q-135 0 -328 -82l-35 162q66 36 178 67t185 31q179 0 251 -79t72 -245v-612h-182v90q-30 -55 -101 -82.5t-149 -27.5q-151 0 -235 83.5t-84 200.5zM260 276q0 -129 137 -129q118 0 184 71t66 214 l-215 -29q-172 -22 -172 -127z" />
<glyph unicode="b" horiz-adv-x="1001" d="M139 0v1305l187 51v-453q91 33 182 33q183 0 294 -127.5t111 -339.5q0 -230 -102 -359.5t-297 -129.5q-52 0 -107.5 24.5t-80.5 58.5v-63h-187zM326 297q0 -59 49 -98t139 -39q93 0 153 73t60 236v-2q0 141 -65.5 214t-153.5 73q-94 0 -182 -45v-412z" />
<glyph unicode="c" horiz-adv-x="966" d="M88 461q0 94 29.5 179t83.5 151.5t139.5 105.5t189.5 39q200 0 349 -131l-58 -166q-109 115 -289 115q-123 0 -183 -77.5t-60 -213.5q0 -71 16.5 -124t54 -95.5t107 -65t168.5 -22.5q119 0 170 6l-8 -176q-55 -6 -160 -6q-269 0 -409 129t-140 352z" />
<glyph unicode="d" horiz-adv-x="1005" d="M88 432q0 223 115.5 363.5t320.5 140.5q70 0 156 -33v402l186 53v-1358h-186v61q-21 -38 -67 -59.5t-101 -21.5q-81 0 -150.5 24.5t-119.5 67.5t-85 100.5t-52 123t-17 136.5zM279 449q0 -287 233 -287q70 0 119 44t49 107v389q-52 52 -154 52q-247 0 -247 -305z" />
<glyph unicode="e" horiz-adv-x="960" d="M88 461q0 107 36 198t95 150.5t131 93t146 33.5q93 0 165.5 -30.5t115 -83t64 -116.5t21.5 -137q0 -75 -46 -122t-111 -50l-418 -22q2 -44 16.5 -78.5t35 -57t54 -39t63.5 -25t74 -13t74 -5.5t74 -1q33 0 115 8l-17 -174q-132 -10 -153 -10q-284 0 -408 118 q-127 118 -127 363zM289 539l317 14q72 3 72 78q0 46 -48 86.5t-122 40.5q-96 0 -153.5 -63.5t-65.5 -155.5z" />
<glyph unicode="f" horiz-adv-x="628" d="M139 0v1118q99 116 214 171.5t270 66.5l-45 -185q-138 -12 -252 -122v-148h284l-84 -180h-200v-721h-187z" />
<glyph unicode="g" horiz-adv-x="1003" d="M88 455q0 117 37 210.5t99.5 151.5t141 88.5t166.5 30.5q89 0 177.5 -33.5t154.5 -95.5v-719q0 -105 -21 -188t-56 -136.5t-84.5 -88.5t-104 -49.5t-117.5 -14.5q-66 0 -162 27t-167 63l65 168q149 -78 258 -78q94 0 148.5 66t54.5 161q-62 -38 -162 -38q-85 0 -156 27 t-120.5 73t-84.5 107t-51 129t-16 139zM274 451q0 -130 70.5 -210.5t175.5 -80.5q40 0 83 14t73 39l2 516q-52 25 -131 25q-139 0 -206 -81t-67 -222z" />
<glyph unicode="h" horiz-adv-x="1032" d="M139 0v1305l187 51v-502q51 41 119.5 61.5t132.5 20.5q70 0 125.5 -16t99 -50.5t67 -94.5t23.5 -142v-633h-186v621q0 72 -29.5 102.5t-99.5 30.5q-149 0 -252 -107v-647h-187z" />
<glyph unicode="i" horiz-adv-x="464" d="M123 1245q0 46 32 78.5t78 32.5t78.5 -32.5t32.5 -76.5q0 -46 -32.5 -78t-78.5 -32t-78 32t-32 76zM139 0v889l187 47v-936h-187z" />
<glyph unicode="j" horiz-adv-x="464" d="M-154 -379l48 174q27 -6 47 -6q109 0 153.5 63t44.5 193v846l187 45v-860v2q0 -131 -31 -225t-86 -145t-120.5 -74t-145.5 -23q-42 0 -97 10zM121 1245q0 46 32 78.5t76 32.5q46 0 78.5 -32.5t32.5 -76.5q0 -45 -32 -77.5t-77 -32.5q-46 0 -78 32t-32 76z" />
<glyph unicode="k" horiz-adv-x="923" d="M139 0v1305l185 51v-721l473 301v-203l-361 -225l502 -508h-252l-360 362v-362h-187z" />
<glyph unicode="l" horiz-adv-x="464" d="M139 0v1305l187 51v-1356h-187z" />
<glyph unicode="m" horiz-adv-x="1570" d="M139 0v723q236 213 447 213q163 0 239 -115q52 47 140 81t172 34q87 0 146 -23.5t91 -69t45 -101t13 -130.5v-612h-187v614q0 82 -25 111t-83 29q-64 0 -132 -29t-124 -80v-29v-616h-187v614q0 82 -25 111t-83 29q-66 0 -135.5 -29.5t-124.5 -81.5v-643h-187z" />
<glyph unicode="n" horiz-adv-x="1050" d="M139 0v723q102 92 228.5 152.5t248.5 60.5q295 0 295 -311v-625h-186v618q0 68 -32.5 102t-86.5 34q-60 0 -141.5 -33t-138.5 -78v-643h-187z" />
<glyph unicode="o" horiz-adv-x="1028" d="M92 455q0 481 426 481q112 0 194.5 -37t130 -104.5t70 -152.5t23.5 -191q0 -222 -112 -346.5t-304 -124.5q-216 0 -322 127t-106 348zM279 457q0 -145 52 -217.5t187 -73.5h6q65 0 110 22q47 24 71.5 68t34.5 94t10 115v-2q0 152 -54 219.5t-176 67.5q-131 0 -186 -64 t-55 -229z" />
<glyph unicode="p" horiz-adv-x="1009" d="M139 -379v1194q103 65 184.5 93t190.5 28q102 0 181 -37.5t128 -103t74 -150t25 -182.5q0 -111 -37.5 -204t-100.5 -153t-142 -93t-163 -33q-79 0 -153 38v-397h-187zM326 213q72 -53 153 -53q103 0 178.5 82t75.5 221l2 -2q0 142 -61.5 217.5t-159.5 75.5 q-109 0 -188 -39v-502z" />
<glyph unicode="q" horiz-adv-x="995" d="M88 461q0 101 24 182t65 135t97.5 90t118.5 52t131 16q190 0 332 -82v-1233h-186v391q-73 -32 -133 -32q-85 0 -165 33.5t-143.5 94t-102 153t-38.5 200.5zM274 463q0 -75 30 -143t90 -113t138 -45q37 0 76.5 11t61.5 30v528q-80 23 -150 23q-113 0 -179.5 -71 t-66.5 -220z" />
<glyph unicode="r" horiz-adv-x="616" d="M139 0v713q100 111 213 163t264 60l-14 -186q-93 -6 -155.5 -32t-120.5 -77v-641h-187z" />
<glyph unicode="s" horiz-adv-x="806" d="M88 711q0 94 75.5 159.5t221.5 65.5q73 0 159 -18t134 -52l-25 -168q-99 64 -225 64q-69 0 -106 -18q-39 -20 -39 -50q0 -56 102 -106l199 -101q66 -34 100.5 -97.5t34.5 -139.5q-1 -87 -43.5 -149t-111 -91.5t-154.5 -29.5q-154 0 -279 57l-22 209q61 -40 146 -63 t159 -23q56 0 86 21t30 73t-67 88l-211 111q-78 40 -121 107.5t-43 150.5z" />
<glyph unicode="t" horiz-adv-x="618" d="M139 223v889l187 51v-262h235l-84 -180h-151v-498q0 -61 71 -61q34 0 64 10l39 -182q-55 -10 -101 -10q-53 0 -98 13.5t-82 41.5t-58.5 76t-21.5 112z" />
<glyph unicode="u" horiz-adv-x="1019" d="M139 299v592l187 45v-637q0 -69 39 -105t108 -36q67 0 133.5 32.5t85.5 73.5v625l189 47v-936h-187v63q-44 -40 -113.5 -61.5t-138.5 -21.5q-157 0 -230 87.5t-73 231.5z" />
<glyph unicode="v" horiz-adv-x="907" d="M27 889l178 47l219 -713q11 -36 17 -46.5t16 -10.5l213 723l211 45l-289 -954h-152q-63 0 -107 30.5t-57 75.5z" />
<glyph unicode="w" horiz-adv-x="1406" d="M27 889l188 47l231 -711q13 -43 19.5 -54t17.5 -11l146 475l-74 254l182 47l211 -711q12 -44 17.5 -54.5t17.5 -10.5l193 729l204 47l-266 -956h-174q-44 0 -80 26.5t-47 63.5l-92 295l-115 -385h-182q-47 0 -77.5 24.5t-43.5 65.5z" />
<glyph unicode="x" horiz-adv-x="1034" d="M27 0l372 479l-317 410l201 47l233 -303l201 256l270 47l-354 -455l375 -481h-236l-256 328l-254 -328h-235z" />
<glyph unicode="y" horiz-adv-x="1028" d="M139 352v539l187 45v-584q0 -83 36 -135.5t115 -52.5q60 0 128.5 33t96.5 82v612l187 45v-850q0 -131 -31 -226t-86 -148t-120.5 -77t-145.5 -24q-66 0 -161.5 27t-166.5 63l64 168q172 -78 274 -78q90 0 138 59.5t48 161.5v51q-42 -39 -110.5 -61t-128.5 -22 q-50 0 -94.5 10.5t-87.5 37.5t-73.5 68t-49.5 106.5t-19 149.5z" />
<glyph unicode="z" horiz-adv-x="909" d="M78 721l26 180h658q43 0 43 -37v-108l-490 -576h516l-36 -180h-613q-36 0 -60.5 13.5t-25.5 41.5l-8 117l453 549h-463z" />
<glyph unicode="{" horiz-adv-x="595" d="M61 455l27 106q45 0 77 33.5t32 69.5v389q0 72 18.5 126t49 87t75 54t91.5 28.5t104 7.5l-31 -152q-74 0 -98.5 -37.5t-24.5 -152.5v-334q0 -75 -37.5 -118.5t-75.5 -51.5q38 -8 74.5 -56t36.5 -135v-342q0 -108 28.5 -153.5t114.5 -46.5l-28 -152q-50 3 -89 11.5t-79 29 t-66.5 52.5t-43.5 85t-17 123v406q0 42 -36 82.5t-102 40.5z" />
<glyph unicode="|" horiz-adv-x="1024" />
<glyph unicode="}" horiz-adv-x="591" d="M61 -375l31 152q48 0 85.5 52.5t37.5 145.5v344q0 87 36.5 135t74.5 56q-38 8 -74.5 51.5t-36.5 118.5v334q0 112 -29.5 151t-111.5 39h-13l29 152q53 0 102 -13.5t97 -45t77 -94.5t29 -150v-406q0 -48 34 -82.5t101 -34.5l-22 -106q-54 0 -82.5 -35.5t-28.5 -89.5v-342 q0 -175 -83 -252t-253 -80z" />
<glyph unicode="~" horiz-adv-x="1044" d="M154 1122l49 197q62 18 125 18q142 0 241 -61q4 -2 22.5 -14t24.5 -15.5t22.5 -12t26 -11.5t24 -6t28.5 -3q47 0 131 29l43 -180q-112 -31 -178 -31v-2q-45 0 -87.5 11.5t-67.5 23.5t-62 33q-39 24 -58 34.5t-52.5 21.5t-66.5 11q-20 0 -33 -1.5t-47 -11.5t-85 -30z" />
<glyph unicode="&#xa1;" horiz-adv-x="526" d="M147 1241q0 47 34 81t81 34t82 -34t35 -81t-35 -82t-82 -35t-81 35t-34 82zM170 -20v1005h186v-954z" />
<glyph unicode="&#xa2;" horiz-adv-x="976" d="M88 461q0 121 45.5 224t139 171.5t219.5 77.5v113l86 43v-156q169 -13 301 -129l-58 -166q-94 102 -243 113v-594q18 -2 57 -2q119 0 170 6l-8 -176q-55 -6 -160 -6q-39 0 -57 2v-164h-88v174q-198 33 -301 156.5t-103 312.5zM289 463q0 -75 17.5 -130.5t64 -99 t121.5 -63.5v582q-103 -13 -153 -89t-50 -200z" />
<glyph unicode="&#xa3;" horiz-adv-x="1083" d="M113 0v199h163v524h-163v201h161v206q165 226 484 226q65 0 180 -13l-47 -202q-109 14 -131 14q-194 0 -285 -98v-133h328l-84 -199h-244v-526h516l-43 -199h-835z" />
<glyph unicode="&#xa5;" horiz-adv-x="1404" d="M154 770v533l198 53v-584q0 -113 73.5 -177.5t176.5 -64.5q123 0 252 70v711l199 45v-776h331l-45 -174h-288q0 -31 -7 -66h256l-45 -176h-262q-101 -184 -336 -184q-39 0 -94 10l47 172q5 -1 15 -2.5t18 -2.5t14 -1q100 0 149.5 63.5t49.5 179.5q-147 -61 -258 -61 q-84 0 -162 27.5t-141.5 79.5t-102 136.5t-38.5 188.5z" />
<glyph unicode="&#xa6;" horiz-adv-x="1024" />
<glyph unicode="&#xa7;" horiz-adv-x="1161" d="M113 508q0 95 48.5 179t135.5 136q-43 69 -62.5 142t-11.5 131q115 134 261 189t378 71l-45 -199q-149 -14 -235.5 -43t-147.5 -88q11 -81 61.5 -131.5t147.5 -93.5q30 -13 73.5 -30.5t73.5 -29t68 -29.5t63 -35t51.5 -43t42 -55.5t25 -70.5t9.5 -90q0 -90 -46.5 -170.5 t-123.5 -134.5q65 -83 65 -191q0 -77 -29 -137t-74.5 -97.5t-109.5 -62.5t-126 -35.5t-132 -13.5l31 195q244 16 246 149q0 83 -129 148q-17 8 -66 30q-19 8 -56.5 24t-60.5 25.5t-59 26.5t-59.5 30.5t-54 34t-50.5 39.5t-41 45t-33 53.5t-20 61t-8 70.5zM307 510 q-1 -43 28.5 -76.5t94.5 -68.5q43 -22 137.5 -62t137.5 -61q66 17 106.5 63t40.5 101q0 43 -28 82t-83 63l-151 65q-91 41 -133 68q-70 -19 -110 -69.5t-40 -104.5z" />
<glyph unicode="&#xa8;" horiz-adv-x="1001" d="M205 1231q0 46 32 78t76 32q46 0 78.5 -32t32.5 -76q0 -46 -32.5 -79.5t-76.5 -33.5q-45 0 -77.5 33t-32.5 78zM575 1231q0 45 32.5 77.5t76.5 32.5q46 0 79.5 -32t33.5 -76q0 -46 -33.5 -79.5t-77.5 -33.5q-45 0 -78 33t-33 78z" />
<glyph unicode="&#xa9;" horiz-adv-x="770" d="M92 1042q0 130 92.5 222t221.5 92t221 -92t92 -222q0 -129 -92 -220t-221 -91v-2q-129 0 -221.5 92t-92.5 221zM160 1042q0 -101 72.5 -173t173.5 -72t173 72t72 173q0 102 -71.5 174t-173.5 72t-174 -72t-72 -174zM240 1044q0 82 45 135.5t127 53.5q47 0 96 -21l-12 -71 q-48 26 -84 26q-50 0 -77.5 -32.5t-27.5 -90.5q0 -57 30.5 -87.5t74.5 -30.5q41 0 90 32l-10 -86q-53 -16 -80 -16q-71 2 -121.5 52.5t-50.5 135.5z" />
<glyph unicode="&#xaa;" horiz-adv-x="622" d="M51 903q0 92 62 144.5t157 62.5l154 18v27q0 35 -16 46t-58 11q-96 0 -229 -57l-29 129q52 28 127 50t125 22q124 0 175.5 -56.5t51.5 -169.5v-413h-147v49q-30 -27 -75 -45.5t-81 -18.5q-99 0 -158 60t-59 141zM199 911q0 -69 77 -69t111 38t39 117l-125 -12h2 q-104 -13 -104 -74z" />
<glyph unicode="&#xab;" horiz-adv-x="794" d="M51 453l144 348l219 53l-164 -401l166 -392h-199zM348 453l144 348l219 53l-162 -401l164 -390l-199 -2z" />
<glyph unicode="&#xac;" horiz-adv-x="1112" d="M82 504v158h948v-662h-176v504h-772z" />
<glyph unicode="&#xad;" horiz-adv-x="751" d="M72 449l32 192h576l-33 -192h-575z" />
<glyph unicode="&#xae;" horiz-adv-x="770" d="M92 1042q0 130 92.5 222t221.5 92t221 -92t92 -222q0 -129 -92 -220t-221 -91v-2q-129 0 -221.5 92t-92.5 221zM160 1042q0 -101 72.5 -173t173.5 -72t173 72t72 173q0 102 -71.5 174t-173.5 72t-174 -72t-72 -174zM293 870v344q93 15 110 15q54 0 95 -27.5t41 -81.5 q0 -31 -16.5 -58t-45.5 -42l88 -150h-78l-79 131h-9h-39v-131h-67zM360 1069h39q31 0 51.5 17.5t20.5 33.5q0 41 -63 41q-16 0 -48 -4v-88z" />
<glyph unicode="&#xaf;" horiz-adv-x="958" d="M199 1153l39 160h526l-70 -160h-495z" />
<glyph unicode="&#xb0;" horiz-adv-x="780" d="M72 1036q0 132 93 226t224 94q132 0 226 -94t94 -226q0 -131 -94 -224t-226 -93q-131 0 -224 93.5t-93 223.5zM215 1036q0 -71 51 -122.5t123 -51.5t124 51.5t52 122.5q0 72 -52 124t-124 52t-123 -52t-51 -124z" />
<glyph unicode="&#xb1;" horiz-adv-x="1081" d="M82 104l43 172h874l-79 -172h-838zM82 670l43 172h328v293l170 75v-368h376l-79 -170h-295v-324h-170v322h-373z" />
<glyph unicode="&#xb2;" horiz-adv-x="651" d="M915 664q14 57 56.5 113.5t92 100t98 83.5t81 78.5t33.5 70.5q0 72 -98 72q-43 0 -109 -28.5t-117 -66.5l-30 181q71 49 134.5 68.5t137.5 19.5q123 0 194.5 -67.5t71.5 -164.5q0 -62 -35.5 -119t-79.5 -93.5t-103.5 -85.5t-88.5 -83l2 -18h328l-60 -184h-483z" />
<glyph unicode="&#xb3;" horiz-adv-x="677" d="M0 1356h496q46 0 67 -12t21 -41q0 -55 -25 -80l-160 -154q179 -63 179 -248q0 -112 -85 -197t-223 -85q-111 0 -196 45l-33 188q32 -21 100.5 -41t114.5 -20q60 0 97.5 29.5t37.5 76.5q0 51 -41 77t-100 26q-41 0 -88 -21l-64 117l207 172h-250z" />
<glyph unicode="&#xb4;" horiz-adv-x="909" d="M205 1122q81 29 242.5 123t228.5 150l29 -154q-108 -80 -185 -119h-315z" />
<glyph unicode="&#xb6;" horiz-adv-x="1095" d="M102 862q0 200 94 336t267 160h149v-1358h-206l2 406q-135 45 -220.5 169.5t-85.5 286.5zM725 0v1268l207 96v-1364h-207z" />
<glyph unicode="&#xb7;" horiz-adv-x="354" d="M61 506q0 47 35 82t82 35t81 -35t34 -82t-34 -81t-81 -34t-82 34t-35 81z" />
<glyph unicode="&#xb8;" horiz-adv-x="985" d="M395 -115l29 135h182l-14 -77q106 -41 110 -152q0 -75 -53 -136.5t-137 -64.5l-70 119q37 2 61.5 24.5t24.5 59.5q0 49 -37.5 70.5t-95.5 21.5z" />
<glyph unicode="&#xb9;" horiz-adv-x="395" d="M0 1343q62 9 133 9h17q104 0 208 -17v-778l-186 -2v616q-4 0 -18 1.5t-21 1.5q-2 -1 -2 -3q-63 0 -106 -12z" />
<glyph unicode="&#xba;" horiz-adv-x="679" d="M51 1028q0 153 71 240.5t222 87.5q77 0 134 -25.5t89 -72.5t47.5 -104t16.5 -128q0 -151 -77 -236t-210 -85v-3q-147 0 -220 88.5t-73 237.5zM203 1028q0 -90 30 -131.5t111 -42.5q76 0 105.5 47t29.5 131q0 94 -31.5 133t-103.5 39q-77 0 -109 -37t-32 -139z" />
<glyph unicode="&#xbb;" horiz-adv-x="794" d="M82 61l164 392l-162 401l217 -51l145 -350l-163 -392h-201zM379 61l166 392l-164 401l219 -51l143 -350l-163 -392h-201z" />
<glyph unicode="&#xbc;" horiz-adv-x="1380" d="M0 1343q62 9 133 9h17q104 0 208 -17v-778l-186 -2v616q-4 0 -18 1.5t-21 1.5q-2 -1 -2 -3q-63 0 -106 -12zM80 0l919 1331l232 25l-940 -1356h-211zM776 180v72q0 31 2 50.5t12.5 49.5t30.5 60l244 374h211l-283 -438h133v86l174 68v-154h144l-64 -166h-80v-182h-174 v180h-350z" />
<glyph unicode="&#xbd;" horiz-adv-x="1480" d="M0 1343q62 9 133 9h17q104 0 208 -17v-778l-186 -2v616q-4 0 -18 1.5t-21 1.5q-2 -1 -2 -3q-63 0 -106 -12zM80 0l919 1331l232 25l-940 -1356h-211zM915 123q14 57 56.5 113.5t92.5 99.5t98.5 83t80.5 78.5t33 71.5q0 72 -98 72q-43 0 -109 -28.5t-117 -67.5l-30 182 q131 88 272 88q123 0 194.5 -67.5t71.5 -165.5q0 -62 -35.5 -119t-79 -93.5t-103.5 -85t-89 -81.5l2 -21h328l-60 -182h-483z" />
<glyph unicode="&#xbe;" horiz-adv-x="1560" d="M0 1356h496q46 0 66 -12t20 -41h2q0 -55 -25 -80l-160 -154q179 -63 179 -248q0 -112 -85 -197t-223 -85q-111 0 -196 45l-33 188q32 -21 100.5 -41t114.5 -20q60 0 97.5 29.5t37.5 76.5q0 51 -41 77t-100 26q-41 0 -88 -21l-64 117l207 172h-250zM209 0l919 1331l232 25 l-940 -1356h-211zM905 180v72q0 31 2 50.5t12.5 49.5t30.5 60l244 374h211l-283 -438h133v86l175 68v-154h143l-64 -166h-79v-182h-175v180h-350z" />
<glyph unicode="&#xbf;" horiz-adv-x="841" d="M51 362q0 68 20 129.5t51.5 106t71.5 92.5t77.5 88.5t73 95.5t54.5 111h211q-21 -98 -66.5 -175t-94.5 -125t-95 -93t-76 -102.5t-30 -129.5q0 -78 57 -130t166 -52q128 0 272 72l27 -201q-151 -69 -297 -69q-191 0 -306.5 98t-115.5 284zM387 1241q0 47 34 81t81 34 q49 0 82.5 -33.5t33.5 -81.5t-33.5 -82.5t-80.5 -34.5q-49 0 -83 34.5t-34 82.5z" />
<glyph unicode="&#xc0;" horiz-adv-x="1179" d="M10 0l406 1174q31 90 94.5 136t142.5 46h72l444 -1356h-208l-140 426h-454l-148 -426h-209zM283 1554l28 154q68 -56 230 -149.5t243 -122.5h-315q-84 42 -186 118zM432 618h326l-158 484z" />
<glyph unicode="&#xc1;" horiz-adv-x="1179" d="M10 0l406 1174q31 90 94.5 136t142.5 46h72l444 -1356h-208l-140 426h-454l-148 -426h-209zM432 618h326l-158 484zM463 1434q81 29 242 123t229 151l31 -154q-98 -76 -185 -120h-317z" />
<glyph unicode="&#xc2;" horiz-adv-x="1179" d="M10 0l406 1174q31 90 94.5 136t142.5 46h72l444 -1356h-208l-140 426h-454l-148 -426h-209zM346 1554q88 67 193 119h161q83 -42 187 -119l-29 -153q-115 92 -242 151q-127 -59 -239 -151zM432 618h326l-158 484z" />
<glyph unicode="&#xc3;" horiz-adv-x="1179" d="M10 0l406 1174q31 90 94.5 136t142.5 46h72l444 -1356h-208l-140 426h-454l-148 -426h-209zM346 1540l37 170q24 6 61 6q59 0 109.5 -21t80.5 -46.5t70 -46.5t80 -21q42 0 80 12l29 -147q-55 -21 -111 -21t-104.5 21.5t-77.5 46.5t-72.5 46.5t-91.5 21.5q-39 0 -90 -21z M432 618h326l-158 484z" />
<glyph unicode="&#xc4;" horiz-adv-x="1179" d="M10 0l406 1174q31 90 94.5 136t142.5 46h72l444 -1356h-208l-140 426h-454l-148 -426h-209zM313 1522q0 46 32.5 78t78.5 32t77 -32t31 -78h3q0 -46 -32.5 -78.5t-78.5 -32.5t-78.5 32.5t-32.5 78.5zM432 618h326l-158 484zM688 1522q0 46 32.5 78t78.5 32t78 -32t32 -78 t-32 -78.5t-78 -32.5t-78.5 32.5t-32.5 78.5z" />
<glyph unicode="&#xc5;" horiz-adv-x="1179" d="M10 0l406 1174q23 68 67 112q-69 59 -69 150q0 83 57.5 141.5t140.5 58.5t141 -58t58 -140q0 -88 -63 -148l421 -1290h-208l-140 426h-454l-148 -426h-209zM432 618h326l-158 484zM530 1438q0 -34 24 -58t56 -24q34 0 58 24t24 58q0 33 -23.5 56.5t-56.5 23.5 q-34 0 -58 -23t-24 -57z" />
<glyph unicode="&#xc6;" horiz-adv-x="1742" d="M10 0l625 1174q98 182 205 182q4 0 10.5 0.5t12 0.5t9.5 -1l134 -33q274 33 510 33q77 0 114 -2l-31 -199q-33 2 -104 2q-284 0 -487 -31v-313h542l-92 -195h-450v-419h602l-35 -199h-766v424h-363l-227 -424h-209zM551 618h258v484z" />
<glyph unicode="&#xc7;" horiz-adv-x="1241" d="M113 670q0 147 41.5 272t119.5 217.5t198.5 144.5t270.5 52q191 0 355 -92l-29 -187q-76 38 -165 59t-159 21q-205 0 -313 -125.5t-108 -359.5q0 -140 46 -249.5t144.5 -177.5t237.5 -67q79 0 176 24t164 66l-37 -231q-117 -48 -262 -55l-7 -39q107 -41 111 -152 q0 -75 -53 -136.5t-137 -64.5l-72 119q38 2 63 24.5t25 59.5q0 48 -38 70t-95 22l22 109q-105 22 -194.5 77t-158 139t-107.5 202.5t-39 257.5z" />
<glyph unicode="&#xc8;" horiz-adv-x="1097" d="M164 0v1292q326 64 706 64q78 0 115 -2l-31 -199q-33 2 -104 2q-285 0 -488 -31v-313h543l-92 -195h-451v-419h603l-35 -199h-766zM272 1554l29 154q68 -56 230 -149.5t243 -122.5h-315q-87 44 -187 118z" />
<glyph unicode="&#xc9;" horiz-adv-x="1097" d="M164 0v1292q326 64 706 64q78 0 115 -2l-31 -199q-33 2 -104 2q-285 0 -488 -31v-313h543l-92 -195h-451v-419h603l-35 -199h-766zM434 1425q81 29 242.5 123t228.5 150l31 -152q-95 -75 -184 -121h-318z" />
<glyph unicode="&#xca;" horiz-adv-x="1097" d="M164 0v1292q326 64 706 64q78 0 115 -2l-31 -199q-33 2 -104 2q-285 0 -488 -31v-313h543l-92 -195h-451v-419h603l-35 -199h-766zM299 1554q88 67 193 119h161q88 -44 185 -119l-27 -153q-115 92 -242 151q-127 -59 -239 -151z" />
<glyph unicode="&#xcb;" horiz-adv-x="1097" d="M164 0v1292q326 64 706 64q78 0 115 -2l-31 -199q-33 2 -104 2q-285 0 -488 -31v-313h543l-92 -195h-451v-419h603l-35 -199h-766zM276 1522q0 46 32 78t77 32q46 0 78.5 -32t32.5 -78t-32.5 -78.5t-76.5 -32.5q-46 0 -78.5 32.5t-32.5 78.5zM651 1522q0 46 32.5 78 t76.5 32q46 0 78 -32t32 -78h2q0 -46 -33 -78.5t-77 -32.5q-46 0 -78.5 32.5t-32.5 78.5z" />
<glyph unicode="&#xcc;" horiz-adv-x="526" d="M-61 1554l28 154q67 -56 229 -149.5t244 -122.5h-317q-78 39 -184 118zM164 0v1305l198 51v-1356h-198z" />
<glyph unicode="&#xcd;" horiz-adv-x="526" d="M88 1434q81 29 242.5 123.5t228.5 150.5l29 -154q-96 -75 -182 -120h-318zM164 0v1305l198 51v-1356h-198z" />
<glyph unicode="&#xce;" horiz-adv-x="526" d="M-6 1554q87 68 192 119h162q74 -37 184 -119l-28 -153q-106 88 -240 151q-132 -61 -241 -151zM164 0v1305l198 51v-1356h-198z" />
<glyph unicode="&#xcf;" horiz-adv-x="526" d="M-35 1522q0 46 32.5 78t78.5 32t77 -32t31 -78h2q0 -46 -32 -78.5t-78 -32.5t-78.5 32.5t-32.5 78.5zM164 0v1305l198 51v-1356h-198zM340 1522q0 46 32 78t77 32q46 0 79 -32t33 -78t-32.5 -78.5t-77.5 -32.5q-46 0 -78.5 32.5t-32.5 78.5z" />
<glyph unicode="&#xd0;" horiz-adv-x="1409" d="M0 707v192h164v418q275 39 426 39q127 0 232 -25t181.5 -71t133.5 -108.5t91.5 -140t51 -162t16.5 -179.5q0 -152 -46 -272.5t-122.5 -197.5t-183 -127.5t-220 -71.5t-241.5 -21q-150 0 -319 26v701h-164zM362 186q90 -8 140 -8q95 0 176.5 14t159 49t132 90t87.5 141.5 t33 197.5l2 -2q0 112 -25 197t-81.5 152t-156.5 103t-241 37q-112 0 -226 -12v-246h300l-93 -190h-207v-523z" />
<glyph unicode="&#xd1;" horiz-adv-x="1376" d="M164 0v1300l246 58l604 -1106v1053l200 53v-1358h-120q-61 0 -123 41t-107 123l-487 866h-15v-1030h-198zM446 1540l37 170q24 6 62 6q59 0 109.5 -21t80.5 -46.5t70 -46.5t80 -21q43 0 80 12l28 -147q-55 -21 -110 -21q-56 0 -104.5 21.5t-77.5 46.5t-72.5 46.5 t-91.5 21.5q-40 0 -91 -21z" />
<glyph unicode="&#xd2;" horiz-adv-x="1441" d="M113 651q0 146 36.5 271.5t108.5 223.5t190 154t271 56q123 0 225 -37t172.5 -101.5t119 -154t71 -193t22.5 -219.5q0 -135 -32 -247t-88 -189.5t-133 -131t-166.5 -78.5t-188.5 -25q-100 0 -188 23t-166 75t-133.5 128.5t-88 190.5t-32.5 254zM317 651q0 -473 402 -473 q86 0 156 25t127 78.5t88.5 147.5t31.5 222h2q0 242 -103 374t-300 132q-199 0 -301.5 -132t-102.5 -374zM389 1552l29 156q68 -57 230 -151t243 -121l-318 -2q-78 39 -184 118z" />
<glyph unicode="&#xd3;" horiz-adv-x="1441" d="M113 651q0 146 36.5 271.5t108.5 223.5t190 154t271 56q123 0 225 -37t172.5 -101.5t119 -154t71 -193t22.5 -219.5q0 -135 -32 -247t-88 -189.5t-133 -131t-166.5 -78.5t-188.5 -25q-100 0 -188 23t-166 75t-133.5 128.5t-88 190.5t-32.5 254zM317 651q0 -473 402 -473 q86 0 156 25t127 78.5t88.5 147.5t31.5 222h2q0 242 -103 374t-300 132q-199 0 -301.5 -132t-102.5 -374zM516 1425q81 29 242.5 123t228.5 150l29 -152h2q-95 -75 -184 -121h-318z" />
<glyph unicode="&#xd4;" horiz-adv-x="1441" d="M113 651q0 146 36.5 271.5t108.5 223.5t190 154t271 56q123 0 225 -37t172.5 -101.5t119 -154t71 -193t22.5 -219.5q0 -135 -32 -247t-88 -189.5t-133 -131t-166.5 -78.5t-188.5 -25q-100 0 -188 23t-166 75t-133.5 128.5t-88 190.5t-32.5 254zM317 651q0 -473 402 -473 q86 0 156 25t127 78.5t88.5 147.5t31.5 222h2q0 242 -103 374t-300 132q-199 0 -301.5 -132t-102.5 -374zM455 1554q90 68 192 119h162q80 -40 186 -119l-28 -153q-115 92 -242 151q-129 -60 -240 -151z" />
<glyph unicode="&#xd5;" horiz-adv-x="1441" d="M113 651q0 146 36.5 271.5t108.5 223.5t190 154t271 56q123 0 225 -37t172.5 -101.5t119 -154t71 -193t22.5 -219.5q0 -135 -32 -247t-88 -189.5t-133 -131t-166.5 -78.5t-188.5 -25q-100 0 -188 23t-166 75t-133.5 128.5t-88 190.5t-32.5 254zM317 651q0 -473 402 -473 q86 0 156 25t127 78.5t88.5 147.5t31.5 222h2q0 242 -103 374t-300 132q-199 0 -301.5 -132t-102.5 -374zM453 1540l34 170q27 6 62 6q49 0 91 -14t71.5 -34t56.5 -39.5t58.5 -33.5t64.5 -14q43 0 80 12l26 -147h2q-58 -21 -110 -21q-56 0 -104.5 21.5t-78 46.5t-73.5 46.5 t-92 21.5q-41 0 -88 -21z" />
<glyph unicode="&#xd6;" horiz-adv-x="1441" d="M113 651q0 146 36.5 271.5t108.5 223.5t190 154t271 56q123 0 225 -37t172.5 -101.5t119 -154t71 -193t22.5 -219.5q0 -135 -32 -247t-88 -189.5t-133 -131t-166.5 -78.5t-188.5 -25q-100 0 -188 23t-166 75t-133.5 128.5t-88 190.5t-32.5 254zM317 651q0 -473 402 -473 q86 0 156 25t127 78.5t88.5 147.5t31.5 222h2q0 242 -103 374t-300 132q-199 0 -301.5 -132t-102.5 -374zM367 1522q0 45 32.5 77.5t77.5 32.5q46 0 78.5 -32t32.5 -78t-32.5 -78.5t-76.5 -32.5q-46 0 -79 32.5t-33 78.5zM829 1522q0 46 32.5 78t78.5 32t78.5 -32t32.5 -78 t-32.5 -78.5t-78.5 -32.5t-78.5 32.5t-32.5 78.5z" />
<glyph unicode="&#xd7;" horiz-adv-x="1040" d="M82 160l291 289l-291 290l113 160l313 -313l313 313l113 -160l-291 -288l315 -314l-137 -137l-313 313l-313 -313z" />
<glyph unicode="&#xd8;" horiz-adv-x="1441" d="M113 649q0 146 36.5 271.5t108.5 224t190 155t271 56.5q158 0 285 -62l45 72l225 -10l-119 -178q174 -192 174 -527q0 -135 -32 -247.5t-88 -190.5t-133 -132t-166.5 -79t-188.5 -25q-169 0 -303 70l-43 -67l-207 26l100 156q-155 176 -155 487zM311 651q0 -196 72 -311 l510 784q-70 33 -172 33q-199 0 -304.5 -133t-105.5 -373zM526 213q87 -37 193 -37q86 0 157.5 25.5t129.5 79t91 147.5t33 221q0 221 -90 352z" />
<glyph unicode="&#xd9;" horiz-adv-x="1353" d="M164 414v889l198 53v-914q0 -146 89.5 -212t236.5 -66q74 0 160 17.5t141 49.5v1072l201 53v-1258v2q-263 -120 -506 -120q-88 0 -164 14.5t-142 47.5t-113 82.5t-74 123.5t-27 166zM422 1554l29 154q69 -57 230.5 -150t242.5 -122h-318q-78 39 -184 118z" />
<glyph unicode="&#xda;" horiz-adv-x="1353" d="M164 414v889l198 53v-914q0 -146 89.5 -212t236.5 -66q74 0 160 17.5t141 49.5v1072l201 53v-1258v2q-263 -120 -506 -120q-88 0 -164 14.5t-142 47.5t-113 82.5t-74 123.5t-27 166zM467 1434q81 29 242.5 123.5t228.5 150.5l29 -154q-94 -73 -183 -120h-317z" />
<glyph unicode="&#xdb;" horiz-adv-x="1353" d="M164 414v889l198 53v-914q0 -146 89.5 -212t236.5 -66q74 0 160 17.5t141 49.5v1072l201 53v-1256q-263 -120 -506 -120q-88 0 -164 14.5t-142 47.5t-113 82.5t-74 123.5t-27 166zM408 1554q87 68 192 119h162q74 -37 184 -119l-28 -153q-106 88 -240 151 q-134 -62 -242 -151z" />
<glyph unicode="&#xdc;" horiz-adv-x="1353" d="M164 414v889l198 53v-914q0 -146 89.5 -212t236.5 -66q74 0 160 17.5t141 49.5v1072l201 53v-1258v2q-263 -120 -506 -120q-88 0 -164 14.5t-142 47.5t-113 82.5t-74 123.5t-27 166zM381 1522q0 45 33 77.5t78 32.5q46 0 78 -32t32 -78t-32 -78.5t-76 -32.5 q-46 0 -79.5 32.5t-33.5 78.5zM801 1522q0 46 32 78t78 32t78.5 -32t32.5 -78t-32.5 -78.5t-78.5 -32.5t-78 32.5t-32 78.5z" />
<glyph unicode="&#xdd;" horiz-adv-x="1226" d="M164 778v527l198 51v-578q0 -113 73 -176t177 -63q129 0 250 69v701l201 47v-903q0 -131 -32.5 -226t-89.5 -147t-124.5 -76t-148.5 -24q-40 0 -95 10l48 172q24 -6 47 -6q103 0 147.5 63t46.5 187q-121 -62 -246 -62q-195 0 -323.5 119.5t-128.5 314.5zM399 1434 q81 29 242 123t229 151l29 -154h2q-99 -78 -184 -120h-318z" />
<glyph unicode="&#xde;" horiz-adv-x="1167" d="M0 0v1303l199 53v-209h252q115 0 203.5 -37.5t143 -105.5t82 -158.5t27.5 -200.5q0 -128 -48 -231.5t-147.5 -168.5t-236.5 -65h-276v-180h-199zM199 379h215q135 0 211.5 68t76.5 192q0 162 -65 235.5t-223 73.5h-215v-569z" />
<glyph unicode="&#xdf;" horiz-adv-x="1024" d="M139 -2v1130q104 117 221 167t283 61q92 -34 164 -132t72 -204q0 -99 -42.5 -172t-125.5 -135q-52 -35 -52 -54q0 -8 3 -15t9.5 -14t11 -11.5t12.5 -10.5t10 -8l141 -135q117 -111 117 -242q0 -237 -439 -237l39 186h27.5h31t30 0.5t31.5 3t27.5 6t25.5 9.5t18.5 14 t13.5 19.5t4 25.5q0 33 -51 84l-180 172q-2 2 -22 20.5t-25 25.5t-17 25t-16 37.5t-4 44.5q0 60 63 119q13 13 43.5 38.5t48.5 43t39 43.5t31.5 55.5t11.5 63.5q0 35 -30.5 77t-75.5 79q-78 -9 -147 -38.5t-113 -70.5v-1071h-189z" />
<glyph unicode="&#xe0;" horiz-adv-x="968" d="M78 264q0 130 88 207.5t231 93.5l250 31v49q0 67 -34.5 90t-106.5 23q-135 0 -328 -82l-35 162q66 36 178 67t185 31q179 0 251 -79t72 -245v-612h-182v90q-30 -55 -101 -82.5t-149 -27.5q-151 0 -235 83.5t-84 200.5zM141 1241l29 154q67 -56 229 -150t244 -123h-317 q-77 39 -185 119zM260 276q0 -129 137 -129q118 0 184 71t66 214l-215 -29q-172 -22 -172 -127z" />
<glyph unicode="&#xe1;" horiz-adv-x="968" d="M78 264q0 130 88 207.5t231 93.5l250 31v49q0 67 -34.5 90t-106.5 23q-135 0 -328 -82l-35 162q66 36 178 67t185 31q179 0 251 -79t72 -245v-612h-182v90q-30 -55 -101 -82.5t-149 -27.5q-151 0 -235 83.5t-84 200.5zM260 276q0 -129 137 -129q118 0 184 71t66 214 l-215 -29q-172 -22 -172 -127zM293 1122q80 29 241 122.5t230 150.5l29 -154q-100 -74 -185 -119h-315z" />
<glyph unicode="&#xe2;" horiz-adv-x="968" d="M78 264q0 130 88 207.5t231 93.5l250 31v49q0 67 -34.5 90t-106.5 23q-135 0 -328 -82l-35 162q66 36 178 67t185 31q179 0 251 -79t72 -245v-612h-182v90q-30 -55 -101 -82.5t-149 -27.5q-151 0 -235 83.5t-84 200.5zM211 1180q83 65 192 118h160q81 -41 185 -118 l-29 -154q-109 90 -240 152q-129 -60 -241 -152zM260 276q0 -129 137 -129q118 0 184 71t66 214l-215 -29q-172 -22 -172 -127z" />
<glyph unicode="&#xe3;" horiz-adv-x="968" d="M78 264q0 130 88 207.5t231 93.5l250 31v49q0 67 -34.5 90t-106.5 23q-135 0 -328 -82l-35 162q66 36 178 67t185 31q179 0 251 -79t72 -245v-612h-182v90q-30 -55 -101 -82.5t-149 -27.5q-151 0 -235 83.5t-84 200.5zM197 1157l36 168q32 8 62 8q59 0 109.5 -21 t80.5 -46.5t70 -46.5t80 -21q43 0 80 12l26 -147q-56 -21 -110 -21q-46 0 -85.5 14t-68 34t-55.5 40t-62 34t-75 14q-41 0 -88 -21zM260 276q0 -129 137 -129q118 0 184 71t66 214l-215 -29q-172 -22 -172 -127z" />
<glyph unicode="&#xe4;" horiz-adv-x="968" d="M78 264q0 130 88 207.5t231 93.5l250 31v49q0 67 -34.5 90t-106.5 23q-135 0 -328 -82l-35 162q66 36 178 67t185 31q179 0 251 -79t72 -245v-612h-182v90q-30 -55 -101 -82.5t-149 -27.5q-151 0 -235 83.5t-84 200.5zM190 1231q0 46 31.5 78t77.5 32t78.5 -32t32.5 -76 q0 -46 -32.5 -79.5t-78.5 -33.5q-45 0 -77 33t-32 78zM260 276q0 -129 137 -129q118 0 184 71t66 214l-215 -29q-172 -22 -172 -127zM561 1231q0 46 31.5 78t77.5 32t78 -32t32 -76q0 -46 -32.5 -79.5t-77.5 -33.5t-77 33t-32 78z" />
<glyph unicode="&#xe5;" horiz-adv-x="968" d="M78 264q0 130 88 207.5t231 93.5l250 31v49q0 67 -34.5 90t-106.5 23q-135 0 -328 -82l-35 162q66 36 178 67t185 31q179 0 251 -79t72 -245v-612h-182v90q-30 -55 -101 -82.5t-149 -27.5q-151 0 -235 83.5t-84 200.5zM260 276q0 -129 137 -129q118 0 184 71t66 214 l-215 -29q-172 -22 -172 -127zM285 1272q0 83 57.5 140.5t140.5 57.5t141 -57.5t58 -140.5t-58 -141t-141 -58t-140.5 58t-57.5 141zM401 1272q0 -34 24 -57t58 -23q33 0 56.5 23.5t23.5 56.5t-23.5 56.5t-56.5 23.5q-34 0 -58 -23t-24 -57z" />
<glyph unicode="&#xe6;" horiz-adv-x="1468" d="M78 264q0 130 87.5 206.5t231.5 94.5l246 31v49q0 67 -32.5 88t-104.5 21q-144 0 -328 -78l-35 162q66 36 178 67t185 31q188 0 264 -94q111 94 244 94q93 0 164 -30.5t111.5 -83t60.5 -116.5t20 -137q0 -75 -46.5 -122t-111.5 -50l-401 -22q1 -35 10 -64.5t21.5 -50.5 t34.5 -38t41 -27.5t50 -18.5t53 -11.5t57.5 -5.5t56.5 -2.5t57 -0.5q46 0 108 6l-16 -174q-106 -8 -143 -8q-293 -3 -428 151q-98 -151 -316 -151q-151 0 -235 83.5t-84 200.5zM264 276q0 -124 133 -124q116 0 181 71.5t65 204.5l-211 -29q-90 -12 -129 -42t-39 -81z M819 539l293 14q33 1 51.5 23.5t18.5 54.5q0 48 -41.5 86.5t-114.5 38.5q-90 -1 -143 -62t-64 -155z" />
<glyph unicode="&#xe7;" horiz-adv-x="966" d="M88 461q0 94 29.5 179t83.5 151.5t139.5 105.5t189.5 39q200 0 349 -131l-58 -166q-109 115 -289 115q-123 0 -183 -77.5t-60 -213.5q0 -71 16.5 -124t54 -95.5t107 -65t168.5 -22.5q119 0 170 6l-8 -176q-55 -6 -160 -6h-43l-6 -37q106 -41 110 -152q0 -75 -53 -136.5 t-137 -64.5l-70 119q37 2 61.5 24.5t24.5 59.5q0 49 -37.5 70.5t-95.5 21.5l25 123q-162 46 -245 164.5t-83 288.5z" />
<glyph unicode="&#xe8;" horiz-adv-x="960" d="M88 461q0 107 36 198t95 150.5t131 93t146 33.5q93 0 165.5 -30.5t115 -83t64 -116.5t21.5 -137q0 -75 -46 -122t-111 -50l-418 -22q2 -44 16.5 -78.5t35 -57t54 -39t63.5 -25t74 -13t74 -5.5t74 -1q33 0 115 8l-17 -174q-132 -10 -153 -10q-284 0 -408 118 q-127 118 -127 363zM162 1241l28 154q69 -57 231 -150.5t243 -122.5h-316q-80 40 -186 119zM289 539l317 14q72 3 72 78q0 46 -48 86.5t-122 40.5q-96 0 -153.5 -63.5t-65.5 -155.5z" />
<glyph unicode="&#xe9;" horiz-adv-x="960" d="M88 461q0 107 36 198t95 150.5t131 93t146 33.5q93 0 165 -30.5t114.5 -83t63.5 -116.5t21 -137h2q0 -75 -46 -122t-111 -50l-418 -22q2 -44 16.5 -78.5t35 -57t54 -39t63.5 -25t74 -13t74 -5.5t74 -1q33 0 115 8l-17 -174q-132 -10 -153 -10q-284 0 -408 118 q-127 118 -127 363zM289 539l317 14q72 3 72 78q0 46 -48 86.5t-122 40.5q-96 0 -153.5 -63.5t-65.5 -155.5zM375 1122q81 29 242.5 123t228.5 150l31 -154q-100 -74 -185 -119h-317z" />
<glyph unicode="&#xea;" horiz-adv-x="960" d="M88 461q0 107 36 198t95 150.5t131 93t146 33.5q93 0 165.5 -30.5t115 -83t64 -116.5t21.5 -137q0 -75 -46 -122t-111 -50l-418 -22q2 -44 16.5 -78.5t35 -57t54 -39t63.5 -25t74 -13t74 -5.5t74 -1q33 0 115 8l-17 -174q-132 -10 -153 -10q-284 0 -408 118 q-127 118 -127 363zM233 1198q84 63 193 121h162q74 -37 184 -119l-29 -156q-115 98 -239 152q-126 -55 -240 -152zM289 539l317 14q72 3 72 78q0 46 -48 86.5t-122 40.5q-96 0 -153.5 -63.5t-65.5 -155.5z" />
<glyph unicode="&#xeb;" horiz-adv-x="960" d="M88 461q0 107 36 198t95 150.5t131 93t146 33.5q93 0 165.5 -30.5t115 -83t64 -116.5t21.5 -137q0 -75 -46 -122t-111 -50l-418 -22q2 -44 16.5 -78.5t35 -57t54 -39t63.5 -25t74 -13t74 -5.5t74 -1q33 0 115 8l-17 -174q-132 -10 -153 -10q-284 0 -408 118 q-127 118 -127 363zM199 1231q0 46 32 78t78 32q45 0 77 -31.5t32 -76.5h2q0 -46 -32.5 -79.5t-78.5 -33.5q-45 0 -77.5 33t-32.5 78zM289 539l317 14q72 3 72 78q0 46 -48 86.5t-122 40.5q-96 0 -153.5 -63.5t-65.5 -155.5zM569 1231q0 46 32.5 78t78.5 32t78.5 -32 t32.5 -76q0 -46 -32.5 -79.5t-78.5 -33.5q-45 0 -78 33t-33 78z" />
<glyph unicode="&#xec;" horiz-adv-x="464" d="M-133 1241l29 154q67 -56 228.5 -150t242.5 -123h-316q-74 37 -184 119zM139 0v889l187 47v-936h-187z" />
<glyph unicode="&#xed;" horiz-adv-x="464" d="M82 1133q81 29 243 122.5t228 149.5l29 -154q-100 -74 -183 -118h-317zM139 0v889l187 47v-936h-187z" />
<glyph unicode="&#xee;" horiz-adv-x="464" d="M-37 1198q88 67 193 119h161q77 -39 185 -119l-29 -154q-105 90 -240 152q-132 -61 -239 -152zM139 0v889l187 47v-936h-187z" />
<glyph unicode="&#xef;" horiz-adv-x="464" d="M-55 1231q0 46 32 78t76 32q46 0 78.5 -32t32.5 -76h2q0 -46 -33.5 -79.5t-77.5 -33.5q-45 0 -77.5 33t-32.5 78zM139 0v889l187 47v-936h-187zM299 1231q0 45 33 77.5t78 32.5q46 0 78 -32t32 -76q0 -46 -32 -79.5t-76 -33.5q-46 0 -79.5 33.5t-33.5 77.5z" />
<glyph unicode="&#xf0;" horiz-adv-x="1138" d="M88 461q1 67 18 127.5t54.5 114t91 93t132 62.5t173.5 23q64 0 138 -23.5t122 -62.5q-43 147 -205 247l-80 -106l-151 108l57 74q-96 30 -180 41l-39 197q200 -30 336 -80l102 135l99 -180l-29 -35q324 -195 324 -618q0 -93 -19 -179.5t-59 -163t-98 -133t-141 -89.5 t-183 -33q-140 0 -248 71t-162 179.5t-53 230.5zM285 455q0 -113 76.5 -195.5t189.5 -81.5q62 0 113 23t85 61.5t58 89.5t34.5 105.5t10.5 111.5v-2q-127 115 -295 115q-119 0 -196 -57t-76 -170z" />
<glyph unicode="&#xf1;" horiz-adv-x="1050" d="M139 0v723q102 92 228.5 152.5t248.5 60.5q295 0 295 -311v-625h-186v618q0 68 -32.5 102t-86.5 34q-60 0 -141.5 -33t-138.5 -78v-643h-187zM256 1143l37 168q32 8 61 8q59 0 109.5 -21t80.5 -46.5t70 -46.5t80 -21q44 0 82 12l27 -147q-55 -21 -111 -21q-46 0 -85.5 14 t-68 34t-55.5 39.5t-62 33.5t-75 14q-42 0 -90 -20z" />
<glyph unicode="&#xf2;" horiz-adv-x="1028" d="M92 455q0 481 426 481q112 0 194.5 -37t130 -104.5t70 -152.5t23.5 -191q0 -222 -112 -346.5t-304 -124.5q-216 0 -322 127t-106 348zM197 1241l28 154q69 -56 231 -150t242 -123h-315q-80 40 -186 119zM279 457q0 -145 52 -217.5t187 -73.5q69 -1 116 22.5t71.5 67.5 t34.5 94t10 115v-2q0 152 -54 219.5t-176 67.5q-131 0 -186 -64t-55 -229z" />
<glyph unicode="&#xf3;" horiz-adv-x="1028" d="M92 455q0 481 426 481q112 0 194.5 -37t130 -104.5t70 -152.5t23.5 -191q0 -222 -112 -346.5t-304 -124.5q-216 0 -322 127t-106 348zM279 457q0 -145 52 -217.5t187 -73.5q69 -1 116 22.5t71.5 67.5t34.5 94t10 115v-2q0 152 -54 219.5t-176 67.5q-131 0 -186 -64 t-55 -229zM383 1122q82 29 244 123t229 150l29 -154q-108 -80 -185 -119h-317z" />
<glyph unicode="&#xf4;" horiz-adv-x="1028" d="M92 455q0 481 426 481q112 0 194.5 -37t130 -104.5t70 -152.5t23.5 -191q0 -222 -112 -346.5t-304 -124.5q-216 0 -322 127t-106 348zM250 1196q83 65 192 121h162q74 -37 184 -119l-28 -156q-110 94 -240 152q-128 -56 -241 -152zM279 457q0 -145 52 -217.5t187 -73.5 q69 -1 116 22.5t71.5 67.5t34.5 94t10 115v-2q0 152 -54 219.5t-176 67.5q-131 0 -186 -64t-55 -229z" />
<glyph unicode="&#xf5;" horiz-adv-x="1028" d="M92 455q0 481 426 481q112 0 194.5 -37t130 -104.5t70 -152.5t23.5 -191q0 -222 -112 -346.5t-304 -124.5q-216 0 -322 127t-106 348zM238 1126l34 168q40 9 62 9q59 0 110.5 -21.5t81.5 -46.5t70 -46.5t80 -21.5q39 0 80 13l28 -148q-56 -20 -110 -20q-46 0 -85.5 14 t-68 34t-55.5 39.5t-62 33.5t-75 14q-43 0 -90 -21zM279 457q0 -145 52 -217.5t187 -73.5q69 -1 116 22.5t71.5 67.5t34.5 94t10 115v-2q0 152 -54 219.5t-176 67.5q-131 0 -186 -64t-55 -229z" />
<glyph unicode="&#xf6;" horiz-adv-x="1028" d="M92 455q0 481 426 481q112 0 194.5 -37t130 -104.5t70 -152.5t23.5 -191q0 -222 -112 -346.5t-304 -124.5q-216 0 -322 127t-106 348zM211 1231q0 46 32.5 78t78.5 32q45 0 76.5 -31.5t31.5 -76.5h2q0 -46 -32.5 -79.5t-77.5 -33.5t-78 33t-33 78zM279 457 q0 -145 52 -217.5t187 -73.5q69 -1 116 22.5t71.5 67.5t34.5 94t10 115v-2q0 152 -54 219.5t-176 67.5q-131 0 -186 -64t-55 -229zM582 1231q0 46 32 78t78 32t78.5 -32t32.5 -76q0 -46 -32.5 -79.5t-78.5 -33.5q-45 0 -77.5 33t-32.5 78z" />
<glyph unicode="&#xf7;" horiz-adv-x="1314" d="M82 430l43 176h1108l-78 -176h-1073zM535 252q0 47 33.5 81t80.5 34q49 0 83 -33.5t34 -81.5t-34 -82.5t-83 -34.5q-47 0 -80.5 34.5t-33.5 82.5zM535 784q0 48 33.5 82.5t80.5 34.5q49 0 83 -34.5t34 -82.5q0 -47 -34 -80.5t-83 -33.5q-47 0 -80.5 33.5t-33.5 80.5z" />
<glyph unicode="&#xf8;" horiz-adv-x="1028" d="M92 455q0 481 426 481q126 0 211 -45l23 33l174 12l-90 -133q97 -122 100 -352q0 -222 -112 -346.5t-304 -124.5q-125 0 -217 45l-27 -39l-180 -19l99 144q-103 124 -103 344zM279 457q0 -115 28 -181l316 459q-46 15 -103 15q-131 0 -186 -64t-55 -229zM412 182 q46 -16 106 -16q69 -1 116 22.5t71.5 67t34.5 93.5t10 114q0 109 -27 174z" />
<glyph unicode="&#xf9;" horiz-adv-x="1019" d="M139 299v592l187 45v-637q0 -69 39 -105t108 -36q67 0 133.5 32.5t85.5 73.5v625l189 47v-936h-187v63q-44 -40 -113.5 -61.5t-138.5 -21.5q-157 0 -230 87.5t-73 231.5zM215 1241l29 154q67 -56 229 -150t244 -123h-318q-74 37 -184 119z" />
<glyph unicode="&#xfa;" horiz-adv-x="1019" d="M139 299v592l187 45v-637q0 -69 39 -105t108 -36q67 0 133.5 32.5t85.5 73.5v625l189 47v-936h-187v63q-44 -40 -113.5 -61.5t-138.5 -21.5q-157 0 -230 87.5t-73 231.5zM324 1122q82 29 244 123t229 150l28 -154q-110 -82 -184 -119h-317z" />
<glyph unicode="&#xfb;" horiz-adv-x="1019" d="M139 299v592l187 45v-637q0 -69 39 -105t108 -36q67 0 133.5 32.5t85.5 73.5v625l189 47v-936h-187v63q-44 -40 -113.5 -61.5t-138.5 -21.5q-157 0 -230 87.5t-73 231.5zM240 1180q86 65 192 118h162q78 -39 184 -118l-28 -154q-113 93 -240 152q-127 -59 -240 -152z" />
<glyph unicode="&#xfc;" horiz-adv-x="1019" d="M139 299v592l187 45v-637q0 -69 39 -105t108 -36q67 0 133.5 32.5t85.5 73.5v625l189 47v-936h-187v63q-44 -40 -113.5 -61.5t-138.5 -21.5q-157 0 -230 87.5t-73 231.5zM213 1231q0 46 32.5 78t78.5 32t78 -32t32 -76q0 -46 -32 -78.5t-78 -32.5t-78.5 32.5t-32.5 76.5z M584 1231q0 45 32.5 77.5t77.5 32.5q46 0 78.5 -32t32.5 -76q0 -46 -32.5 -78.5t-76.5 -32.5q-46 0 -79 32.5t-33 76.5z" />
<glyph unicode="&#xfd;" horiz-adv-x="1028" d="M139 352v539l187 45v-584q0 -83 36 -135.5t115 -52.5q60 0 128.5 33t96.5 82v612l187 45v-850q0 -131 -31 -226t-86 -148t-120.5 -77t-145.5 -24q-66 0 -161.5 27t-166.5 63l64 168q172 -78 274 -78q90 0 138 59.5t48 161.5v51q-42 -39 -110.5 -61t-128.5 -22 q-50 0 -94.5 10.5t-87.5 37.5t-73.5 68t-49.5 106.5t-19 149.5zM293 1122q80 29 241 122.5t230 150.5l29 -154q-100 -74 -185 -119h-315z" />
<glyph unicode="&#xfe;" horiz-adv-x="991" d="M-4 -2v1305l186 53v-447q86 27 189 27q102 0 181 -37.5t127.5 -103.5t73.5 -150.5t25 -183.5v2q0 -111 -37.5 -204.5t-99.5 -153.5t-141 -93t-164 -32q-76 0 -152 28v-397h-188v387zM182 213q71 -50 156 -53q102 0 178 82t76 221v-2q0 142 -61 218.5t-158 76.5 q-107 0 -191 -41v-502z" />
<glyph unicode="&#xff;" horiz-adv-x="1028" d="M139 352v539l187 45v-584q0 -83 36 -135.5t115 -52.5q60 0 128.5 33t96.5 82v612l187 45v-850q0 -131 -31 -226t-86 -148t-120.5 -77t-145.5 -24q-66 0 -161.5 27t-166.5 63l64 168q172 -78 274 -78q90 0 138 59.5t48 161.5v51q-42 -39 -110.5 -61t-128.5 -22 q-50 0 -94.5 10.5t-87.5 37.5t-73.5 68t-49.5 106.5t-19 149.5zM238 1231q0 46 32 78t76 32q46 0 78.5 -32t32.5 -76h2q0 -45 -33 -78t-78 -33q-46 0 -78 32t-32 77zM608 1231q0 46 32.5 78t78.5 32q45 0 76.5 -31.5t31.5 -76.5h2q0 -46 -32 -78.5t-78 -32.5t-78.5 32.5 t-32.5 76.5z" />
<glyph unicode="&#x152;" horiz-adv-x="2050" d="M113 651q0 146 36.5 271.5t108.5 223.5t190 154t271 56q242 0 395 -137v73q329 64 709 64q77 0 114 -2l-30 -199q-33 2 -107 2q-284 0 -487 -31v-313h545l-93 -195h-452v-419h604l-37 -199h-764v113q-161 -133 -395 -133q-100 0 -188 23t-166 75t-133.5 128.5t-88 190.5 t-32.5 254zM311 651q0 -133 32.5 -228t91 -147t128.5 -75t156 -23t157.5 25t129.5 78.5t91 148t33 221.5q0 241 -105.5 373.5t-303.5 132.5q-199 0 -304.5 -132.5t-105.5 -373.5z" />
<glyph unicode="&#x153;" horiz-adv-x="1579" d="M92 455q0 481 426 481q217 0 322 -137q58 66 132.5 101.5t151.5 35.5q93 0 164 -30.5t112 -83t61 -116.5t20 -137q0 -75 -46.5 -122t-109.5 -50l-403 -22q2 -45 16.5 -80.5t34 -58t53 -38.5t61 -24t72.5 -12.5t72 -5t74 -0.5t106 6l-14 -174q-106 -8 -146 -8 q-278 -3 -415 137q-112 -137 -316 -137q-216 0 -322 127t-106 348zM279 457q0 -145 52 -217.5t187 -73.5q69 -1 116 22.5t71.5 67.5t34.5 94t10 115v-2q0 152 -54 219.5t-176 67.5q-131 0 -186 -64t-55 -229zM930 539l293 14q34 1 52.5 23.5t18.5 54.5h-2q0 48 -40.5 86.5 t-114.5 38.5q-89 -1 -142.5 -62t-64.5 -155z" />
<glyph unicode="&#x178;" horiz-adv-x="1226" d="M164 778v527l198 51v-578q0 -113 73 -176t177 -63q129 0 250 69v701l201 47v-903q0 -131 -32.5 -226t-89.5 -147t-124.5 -76t-148.5 -24q-40 0 -95 10l48 172q24 -6 47 -6q103 0 147.5 63t46.5 187q-121 -62 -246 -62q-195 0 -323.5 119.5t-128.5 314.5zM315 1522 q0 46 32.5 78t78.5 32t77.5 -32t31.5 -78h2q0 -46 -32.5 -78.5t-78.5 -32.5t-78.5 32.5t-32.5 78.5zM690 1522q0 46 32.5 78t78.5 32t78 -32t32 -78t-32 -78.5t-78 -32.5t-78.5 32.5t-32.5 78.5z" />
<glyph unicode="&#x2c6;" horiz-adv-x="948" d="M205 1180q83 65 192 118h160q84 -42 186 -118l-28 -154q-118 95 -242 152q-127 -59 -240 -152z" />
<glyph unicode="&#x2dc;" horiz-adv-x="956" d="M205 1143l35 168q36 8 61 8q49 0 91 -14t71.5 -33.5t56.5 -39.5t58.5 -34t64.5 -14q43 0 80 12l29 -147q-58 -21 -111 -21q-46 0 -85.5 14t-68 34t-55.5 39.5t-62 33.5t-75 14q-45 0 -90 -20z" />
<glyph unicode="&#x2000;" horiz-adv-x="858" />
<glyph unicode="&#x2001;" horiz-adv-x="1716" />
<glyph unicode="&#x2002;" horiz-adv-x="858" />
<glyph unicode="&#x2003;" horiz-adv-x="1716" />
<glyph unicode="&#x2004;" horiz-adv-x="572" />
<glyph unicode="&#x2005;" horiz-adv-x="429" />
<glyph unicode="&#x2006;" horiz-adv-x="286" />
<glyph unicode="&#x2007;" horiz-adv-x="286" />
<glyph unicode="&#x2008;" horiz-adv-x="214" />
<glyph unicode="&#x2009;" horiz-adv-x="343" />
<glyph unicode="&#x200a;" horiz-adv-x="95" />
<glyph unicode="&#x2010;" horiz-adv-x="751" d="M72 449l32 192h576l-33 -192h-575z" />
<glyph unicode="&#x2011;" horiz-adv-x="751" d="M72 449l32 192h576l-33 -192h-575z" />
<glyph unicode="&#x2012;" horiz-adv-x="751" d="M72 449l32 192h576l-33 -192h-575z" />
<glyph unicode="&#x2013;" horiz-adv-x="874" d="M61 449l33 188h719l-53 -188h-699z" />
<glyph unicode="&#x2014;" horiz-adv-x="1071" d="M61 449l33 188h916l-54 -188h-895z" />
<glyph unicode="&#x2018;" horiz-adv-x="380" d="M72 1032q0 149 73 346l164 -22q-68 -191 -71 -316z" />
<glyph unicode="&#x2019;" horiz-adv-x="380" d="M72 1038q28 79 48 169t21 149l168 8h-2q0 -148 -74 -348z" />
<glyph unicode="&#x201a;" horiz-adv-x="380" d="M72 -205q28 79 48 169t21 149l168 8h-2q0 -148 -74 -348z" />
<glyph unicode="&#x201c;" horiz-adv-x="612" d="M72 1032q0 149 73 346l162 -22h2q-68 -191 -71 -316zM313 1032q0 144 66 322l162 -23q-59 -165 -62 -291z" />
<glyph unicode="&#x201d;" horiz-adv-x="606" d="M72 1063q58 162 61 293l166 8q0 -146 -66 -324zM297 1038q69 194 72 318l166 8q0 -143 -76 -348z" />
<glyph unicode="&#x201e;" horiz-adv-x="606" d="M72 -180q58 162 61 293l166 8q0 -146 -66 -324zM297 -205q69 194 72 318l166 8q0 -143 -76 -348z" />
<glyph unicode="&#x2022;" horiz-adv-x="634" d="M51 506q0 109 78.5 187.5t187.5 78.5t188 -78.5t79 -187.5t-79 -187.5t-188 -78.5t-187.5 78.5t-78.5 187.5z" />
<glyph unicode="&#x2026;" horiz-adv-x="1089" d="M61 94q0 47 34 82t81 35q49 0 83 -34.5t34 -82.5q0 -47 -34 -80.5t-81 -33.5q-49 0 -83 33.5t-34 80.5zM430 94q0 47 34 82t81 35q49 0 83 -34.5t34 -82.5q0 -47 -34 -80.5t-81 -33.5q-49 0 -83 33.5t-34 80.5zM797 94q0 48 33.5 82.5t80.5 34.5q49 0 83 -34.5t34 -82.5 q0 -47 -34 -80.5t-81 -33.5q-49 0 -82.5 33t-33.5 81z" />
<glyph unicode="&#x202f;" horiz-adv-x="343" />
<glyph unicode="&#x2039;" horiz-adv-x="497" d="M51 453l144 348l219 53l-164 -401l166 -390l-199 -2z" />
<glyph unicode="&#x203a;" horiz-adv-x="497" d="M82 61l164 392l-162 401l217 -51l145 -350l-163 -392h-201z" />
<glyph unicode="&#x205f;" horiz-adv-x="429" />
<glyph unicode="&#x20ac;" horiz-adv-x="1419" d="M41 414l47 174h203q0 12 -1 33t-1 32v25h-195l49 174h166q47 228 206.5 366t406.5 138q168 0 354 -92l-31 -187q-76 38 -164 59t-159 21q-158 0 -263.5 -79t-146.5 -226h449l-46 -174h-428v-25q0 -7 5 -65h370l-45 -174h-280q54 -117 157 -177.5t230 -60.5q86 2 182.5 26 t161.5 66l-37 -231q-134 -57 -303 -57q-208 0 -373 113.5t-231 320.5h-283z" />
<glyph unicode="&#x2122;" horiz-adv-x="1269" d="M72 1260l12 92h471l-14 -92h-181v-531h-94v531h-194zM578 727l55 598l86 35l176 -440l172 440l86 -33l66 -600h-95l-43 412l-135 -348h-108l-129 344l-37 -408h-94z" />
<glyph unicode="&#xe000;" horiz-adv-x="931" d="M0 0v932h932v-932h-932z" />
</font>
</defs>
</svg>
